<svg xmlns="http://www.w3.org/2000/svg" xmlns:xlink="http://www.w3.org/1999/xlink" width="57" zoomAndPan="magnify" viewBox="0 0 42.75 42.75" height="57" preserveAspectRatio="xMidYMid meet" version="1.0"><defs><clipPath id="0e99c61690"><path d="M 0 0 L 42.5 0 L 42.5 42.5 L 0 42.5 Z M 0 0 " clip-rule="nonzero"/></clipPath><clipPath id="fdd2bebf58"><path d="M 0 0 L 42.078125 0 L 42.078125 42.078125 L 0 42.078125 Z M 0 0 " clip-rule="nonzero"/></clipPath><clipPath id="58aac91c75"><path d="M 9.824219 13 L 23 13 L 23 32 L 9.824219 32 Z M 9.824219 13 " clip-rule="nonzero"/></clipPath><clipPath id="4c79a1ff89"><path d="M 16 17 L 26 17 L 26 32.886719 L 16 32.886719 Z M 16 17 " clip-rule="nonzero"/></clipPath><clipPath id="952fdc98ef"><path d="M 24 13 L 32.246094 13 L 32.246094 27 L 24 27 Z M 24 13 " clip-rule="nonzero"/></clipPath><clipPath id="3cbdb83473"><path d="M 15 9.175781 L 30 9.175781 L 30 14 L 15 14 Z M 15 9.175781 " clip-rule="nonzero"/></clipPath><clipPath id="7f7e4bfa26"><path d="M 16.410156 15.371094 L 17.917969 15.371094 L 17.917969 16.628906 L 16.410156 16.628906 Z M 16.410156 15.371094 " clip-rule="nonzero"/></clipPath><clipPath id="c2801e5734"><path d="M 16.726562 15.542969 L 17.058594 15.414062 C 17.253906 15.335938 17.472656 15.363281 17.640625 15.480469 C 17.8125 15.597656 17.914062 15.792969 17.914062 16 C 17.914062 16.207031 17.8125 16.402344 17.640625 16.519531 C 17.472656 16.636719 17.253906 16.660156 17.058594 16.585938 L 16.726562 16.457031 C 16.535156 16.386719 16.410156 16.203125 16.410156 16 C 16.410156 15.796875 16.535156 15.613281 16.726562 15.542969 Z M 16.726562 15.542969 " clip-rule="nonzero"/></clipPath><clipPath id="4dc07b900d"><path d="M 0.410156 0.371094 L 1.917969 0.371094 L 1.917969 1.628906 L 0.410156 1.628906 Z M 0.410156 0.371094 " clip-rule="nonzero"/></clipPath><clipPath id="2365917520"><path d="M 0.726562 0.542969 L 1.058594 0.414062 C 1.253906 0.335938 1.472656 0.363281 1.640625 0.480469 C 1.8125 0.597656 1.914062 0.792969 1.914062 1 C 1.914062 1.207031 1.8125 1.402344 1.640625 1.519531 C 1.472656 1.636719 1.253906 1.660156 1.058594 1.585938 L 0.726562 1.457031 C 0.535156 1.386719 0.410156 1.203125 0.410156 1 C 0.410156 0.796875 0.535156 0.613281 0.726562 0.542969 Z M 0.726562 0.542969 " clip-rule="nonzero"/></clipPath><clipPath id="538853b882"><rect x="0" width="2" y="0" height="2"/></clipPath><clipPath id="b908c6c00e"><rect x="0" width="43" y="0" height="43"/></clipPath></defs><g clip-path="url(#0e99c61690)"><g transform="matrix(1, 0, 0, 1, 0, 0.000000000000006073)"><g clip-path="url(#b908c6c00e)"><path fill="#464646" d="M 40.125 20.769531 L 37.601562 20.804688 C 37.589844 20.5 37.589844 20.207031 37.566406 19.902344 L 37.53125 19.457031 L 37.523438 19.347656 L 37.507812 19.238281 L 37.480469 19.019531 L 38.71875 18.867188 C 38.734375 19.003906 38.753906 19.128906 38.769531 19.261719 L 38.078125 19.332031 L 38.121094 19.878906 L 38.148438 20.15625 L 38.15625 20.433594 L 38.339844 20.425781 L 38.945312 20.398438 L 40.132812 20.355469 C 40.132812 20.238281 40.132812 20.128906 40.125 20.011719 L 40.097656 19.667969 C 40.082031 19.441406 40.066406 19.210938 40.039062 18.984375 L 39.957031 18.304688 L 39.929688 18.136719 L 39.898438 17.96875 L 39.839844 17.628906 L 39.789062 17.359375 L 37.304688 17.839844 C 37.28125 17.6875 37.246094 17.546875 37.214844 17.402344 L 37.113281 16.964844 C 37.035156 16.679688 36.953125 16.394531 36.867188 16.097656 L 38.0625 15.726562 L 38.171875 16.105469 L 37.507812 16.300781 C 37.558594 16.476562 37.609375 16.652344 37.652344 16.832031 L 37.777344 17.371094 L 37.953125 17.328125 L 38.542969 17.199219 L 39.703125 16.949219 L 39.550781 16.285156 L 39.367188 15.628906 C 39.332031 15.519531 39.308594 15.410156 39.265625 15.300781 L 39.046875 14.644531 L 38.988281 14.484375 C 38.972656 14.433594 38.945312 14.375 38.929688 14.324219 L 38.828125 14.070312 L 36.472656 14.996094 L 36.304688 14.574219 L 36.117188 14.164062 L 36.019531 13.96875 C 35.984375 13.902344 35.960938 13.835938 35.917969 13.769531 L 35.714844 13.371094 L 36.824219 12.792969 L 37.003906 13.144531 L 36.378906 13.457031 C 36.464844 13.617188 36.539062 13.785156 36.617188 13.953125 C 36.691406 14.121094 36.765625 14.289062 36.84375 14.457031 L 37.011719 14.390625 L 37.574219 14.15625 L 38.667969 13.699219 C 38.585938 13.488281 38.484375 13.28125 38.390625 13.078125 L 38.25 12.765625 L 38.089844 12.464844 L 37.929688 12.160156 C 37.878906 12.058594 37.828125 11.957031 37.769531 11.855469 L 37.421875 11.261719 C 37.382812 11.183594 37.332031 11.109375 37.28125 11.03125 L 35.125 12.363281 L 34.882812 11.984375 L 34.765625 11.796875 L 34.636719 11.613281 C 34.460938 11.371094 34.292969 11.125 34.109375 10.890625 L 35.09375 10.125 C 35.175781 10.226562 35.261719 10.324219 35.335938 10.433594 L 34.78125 10.847656 L 35.101562 11.292969 C 35.152344 11.371094 35.210938 11.445312 35.261719 11.519531 L 35.414062 11.757812 L 35.5625 11.65625 L 36.078125 11.328125 L 37.070312 10.679688 L 36.886719 10.394531 L 36.691406 10.117188 C 36.554688 9.929688 36.429688 9.738281 36.289062 9.558594 L 35.867188 9.019531 C 35.800781 8.929688 35.722656 8.84375 35.648438 8.761719 L 35.421875 8.5 L 35.242188 8.296875 L 33.367188 9.988281 C 33.265625 9.871094 33.164062 9.769531 33.054688 9.660156 L 32.746094 9.332031 L 32.417969 9.019531 C 32.308594 8.921875 32.207031 8.8125 32.089844 8.71875 L 32.921875 7.785156 C 33.023438 7.867188 33.113281 7.960938 33.207031 8.054688 L 32.734375 8.558594 L 33.132812 8.9375 L 33.511719 9.332031 L 33.644531 9.207031 L 34.089844 8.792969 L 34.957031 7.984375 C 34.335938 7.3125 33.652344 6.699219 32.945312 6.125 L 32.734375 5.957031 L 31.1875 7.953125 C 30.714844 7.582031 30.21875 7.246094 29.714844 6.925781 L 30.371094 5.867188 L 30.707031 6.074219 L 30.328125 6.65625 C 30.640625 6.851562 30.933594 7.070312 31.238281 7.28125 L 31.347656 7.136719 L 31.710938 6.648438 L 32.417969 5.695312 C 31.683594 5.148438 30.910156 4.671875 30.101562 4.222656 L 29.867188 4.097656 L 28.695312 6.335938 L 28.277344 6.144531 C 28.140625 6.074219 28.007812 6.015625 27.871094 5.957031 C 27.738281 5.898438 27.601562 5.832031 27.460938 5.773438 L 27.039062 5.605469 L 27.492188 4.441406 L 27.863281 4.585938 L 27.59375 5.226562 C 27.679688 5.257812 27.761719 5.292969 27.847656 5.335938 L 28.097656 5.453125 C 28.265625 5.527344 28.4375 5.597656 28.59375 5.6875 L 28.679688 5.527344 L 28.949219 4.980469 L 29.472656 3.921875 L 29.320312 3.847656 L 29.160156 3.777344 L 28.847656 3.636719 C 28.636719 3.542969 28.4375 3.441406 28.21875 3.367188 L 27.578125 3.113281 L 26.929688 2.894531 C 26.84375 2.871094 26.761719 2.835938 26.675781 2.8125 L 25.9375 5.21875 L 25.507812 5.089844 L 25.289062 5.03125 L 25.179688 5 L 25.070312 4.972656 L 24.414062 4.820312 C 24.335938 4.804688 24.269531 4.796875 24.195312 4.78125 L 24.429688 3.550781 L 24.625 3.585938 L 24.816406 3.628906 L 24.675781 4.308594 L 25.210938 4.433594 C 25.304688 4.453125 25.390625 4.476562 25.480469 4.503906 L 25.75 4.578125 L 25.800781 4.402344 L 25.96875 3.820312 L 26.296875 2.683594 C 25.859375 2.550781 25.414062 2.457031 24.96875 2.355469 C 24.742188 2.304688 24.523438 2.273438 24.296875 2.230469 L 23.957031 2.171875 L 23.621094 2.128906 L 23.351562 2.09375 L 23.050781 4.601562 C 22.753906 4.5625 22.453125 4.542969 22.15625 4.519531 L 21.929688 4.503906 C 21.855469 4.503906 21.777344 4.503906 21.703125 4.492188 L 21.257812 4.484375 L 21.273438 3.238281 L 21.667969 3.25 L 21.644531 3.945312 L 21.921875 3.957031 C 22.015625 3.964844 22.105469 3.972656 22.199219 3.972656 L 22.746094 4.015625 L 22.765625 3.828125 L 22.824219 3.222656 L 22.941406 2.046875 C 22.484375 2.011719 22.03125 1.96875 21.578125 1.960938 L 21.230469 1.953125 L 20.894531 1.953125 L 20.214844 1.96875 L 20.078125 1.96875 L 19.945312 1.976562 L 20.085938 4.503906 L 19.640625 4.535156 C 19.488281 4.542969 19.339844 4.554688 19.195312 4.578125 L 18.75 4.636719 C 18.671875 4.644531 18.597656 4.652344 18.53125 4.664062 L 18.3125 4.703125 L 18.101562 3.476562 C 18.226562 3.449219 18.363281 3.425781 18.488281 3.417969 L 18.589844 4.105469 C 18.953125 4.066406 19.320312 4.003906 19.683594 3.988281 L 19.667969 3.804688 L 19.617188 3.199219 L 19.523438 2.019531 L 19.179688 2.046875 C 19.0625 2.054688 18.953125 2.070312 18.84375 2.085938 L 18.160156 2.171875 L 17.488281 2.289062 C 17.378906 2.3125 17.261719 2.324219 17.152344 2.355469 L 16.8125 2.433594 L 16.554688 2.492188 L 17.152344 4.949219 L 16.933594 5 L 16.714844 5.058594 L 16.285156 5.183594 C 16.140625 5.21875 15.996094 5.277344 15.855469 5.320312 L 15.425781 5.460938 L 14.980469 4.292969 L 15.351562 4.164062 L 15.570312 4.820312 C 15.914062 4.695312 16.265625 4.601562 16.621094 4.503906 L 16.570312 4.324219 L 16.410156 3.738281 L 16.105469 2.59375 L 15.449219 2.777344 C 15.339844 2.800781 15.230469 2.84375 15.121094 2.878906 L 14.464844 3.097656 L 14.144531 3.222656 C 13.9375 3.308594 13.71875 3.390625 13.507812 3.476562 L 13.261719 3.585938 L 14.289062 5.898438 L 13.878906 6.085938 C 13.742188 6.152344 13.609375 6.21875 13.472656 6.285156 C 13.339844 6.355469 13.203125 6.421875 13.078125 6.496094 L 12.691406 6.722656 L 12.058594 5.648438 L 12.40625 5.453125 L 12.742188 6.058594 L 12.859375 5.992188 L 12.984375 5.933594 L 13.230469 5.808594 L 13.472656 5.679688 L 13.597656 5.621094 L 13.726562 5.5625 L 13.648438 5.394531 L 13.390625 4.847656 L 12.882812 3.777344 L 12.722656 3.847656 L 12.574219 3.921875 L 11.964844 4.242188 C 11.867188 4.292969 11.765625 4.351562 11.671875 4.410156 C 11.480469 4.527344 11.277344 4.636719 11.082031 4.753906 L 10.503906 5.125 C 10.425781 5.175781 10.351562 5.21875 10.273438 5.277344 L 11.699219 7.363281 L 11.335938 7.625 C 11.210938 7.707031 11.089844 7.792969 10.972656 7.894531 C 10.738281 8.078125 10.492188 8.253906 10.273438 8.457031 L 9.484375 7.488281 C 9.585938 7.40625 9.679688 7.3125 9.789062 7.238281 L 10.226562 7.777344 C 10.519531 7.546875 10.796875 7.3125 11.101562 7.109375 L 10.992188 6.960938 L 10.636719 6.464844 L 9.945312 5.496094 C 9.761719 5.628906 9.578125 5.757812 9.398438 5.898438 C 9.222656 6.042969 9.039062 6.175781 8.863281 6.320312 C 8.515625 6.621094 8.164062 6.910156 7.84375 7.238281 L 7.65625 7.429688 L 9.433594 9.230469 C 9.324219 9.332031 9.222656 9.441406 9.121094 9.550781 L 8.8125 9.878906 C 8.710938 9.988281 8.617188 10.105469 8.515625 10.214844 C 8.414062 10.335938 8.3125 10.445312 8.222656 10.5625 L 7.253906 9.769531 C 7.339844 9.667969 7.421875 9.566406 7.507812 9.46875 L 8.035156 9.921875 C 8.15625 9.789062 8.273438 9.644531 8.398438 9.507812 L 8.777344 9.113281 L 8.644531 8.988281 L 8.203125 8.566406 L 7.355469 7.742188 C 7.195312 7.910156 7.035156 8.070312 6.882812 8.238281 L 6.4375 8.761719 C 6.285156 8.929688 6.152344 9.113281 6.007812 9.289062 C 5.867188 9.46875 5.722656 9.644531 5.597656 9.835938 L 5.4375 10.054688 L 7.5 11.511719 L 7.371094 11.699219 C 7.328125 11.757812 7.289062 11.816406 7.246094 11.882812 L 7 12.261719 L 6.882812 12.445312 C 6.839844 12.515625 6.808594 12.574219 6.773438 12.640625 L 6.546875 13.027344 L 5.453125 12.421875 L 5.648438 12.074219 L 6.246094 12.429688 L 6.378906 12.195312 C 6.429688 12.117188 6.480469 12.042969 6.53125 11.957031 L 6.824219 11.496094 L 6.167969 11.058594 L 5.183594 10.394531 C 4.679688 11.152344 4.222656 11.949219 3.820312 12.765625 L 3.710938 13.011719 L 6 14.078125 C 5.875 14.347656 5.746094 14.625 5.648438 14.902344 L 5.476562 15.324219 C 5.429688 15.46875 5.386719 15.609375 5.335938 15.746094 L 4.148438 15.339844 L 4.273438 14.972656 L 4.929688 15.207031 C 5 15.03125 5.066406 14.863281 5.132812 14.691406 L 5.234375 14.433594 C 5.269531 14.347656 5.308594 14.265625 5.34375 14.179688 L 5.175781 14.105469 L 4.621094 13.859375 L 3.550781 13.378906 C 3.1875 14.222656 2.871094 15.082031 2.632812 15.964844 L 2.558594 16.226562 L 5.007812 16.863281 C 4.941406 17.160156 4.871094 17.445312 4.804688 17.738281 L 4.730469 18.1875 L 4.6875 18.40625 C 4.671875 18.480469 4.664062 18.554688 4.652344 18.625 L 3.417969 18.4375 C 3.433594 18.304688 3.457031 18.175781 3.484375 18.050781 L 4.164062 18.167969 L 4.265625 17.621094 C 4.308594 17.445312 4.351562 17.261719 4.394531 17.082031 L 4.214844 17.042969 L 3.628906 16.898438 L 2.472656 16.628906 C 2.253906 17.519531 2.121094 18.421875 2.035156 19.332031 L 2.019531 19.597656 L 4.542969 19.785156 C 4.535156 19.9375 4.519531 20.078125 4.511719 20.230469 L 4.503906 20.675781 L 4.492188 20.902344 C 4.492188 20.980469 4.484375 21.054688 4.492188 21.132812 L 4.503906 21.578125 L 3.238281 21.628906 L 3.230469 21.230469 L 3.929688 21.222656 C 3.921875 21.039062 3.929688 20.851562 3.9375 20.667969 C 3.945312 20.484375 3.945312 20.296875 3.957031 20.113281 L 3.769531 20.105469 L 3.164062 20.070312 L 1.976562 20.011719 C 1.96875 20.238281 1.960938 20.464844 1.960938 20.695312 L 1.953125 21.039062 L 1.960938 21.382812 C 1.96875 21.609375 1.96875 21.839844 1.976562 22.066406 L 2.027344 22.746094 C 2.035156 22.839844 2.035156 22.921875 2.054688 23.015625 L 4.570312 22.753906 C 4.613281 23.050781 4.636719 23.351562 4.6875 23.648438 L 4.761719 24.09375 C 4.789062 24.238281 4.8125 24.386719 4.847656 24.53125 L 3.628906 24.792969 C 3.609375 24.722656 3.59375 24.664062 3.585938 24.597656 L 3.550781 24.40625 L 4.234375 24.269531 L 4.132812 23.722656 C 4.097656 23.539062 4.082031 23.359375 4.054688 23.175781 L 3.878906 23.203125 L 3.273438 23.277344 L 2.09375 23.421875 L 2.136719 23.757812 L 2.164062 23.925781 L 2.195312 24.09375 L 2.3125 24.765625 C 2.355469 24.992188 2.414062 25.210938 2.464844 25.441406 L 2.542969 25.777344 C 2.566406 25.886719 2.601562 25.996094 2.632812 26.105469 L 2.710938 26.367188 L 5.140625 25.660156 C 5.300781 26.230469 5.511719 26.792969 5.730469 27.351562 L 4.578125 27.828125 L 4.433594 27.460938 L 5.082031 27.207031 L 4.980469 26.945312 C 4.949219 26.863281 4.921875 26.769531 4.890625 26.683594 L 4.710938 26.164062 L 4.535156 26.214844 L 3.957031 26.425781 L 2.828125 26.777344 C 3.105469 27.652344 3.449219 28.503906 3.835938 29.328125 L 3.964844 29.570312 L 6.226562 28.445312 L 6.429688 28.847656 L 6.480469 28.949219 L 6.539062 29.050781 L 6.648438 29.242188 L 6.875 29.628906 L 7.121094 30.007812 L 6.066406 30.683594 L 5.855469 30.347656 L 6.445312 29.984375 C 6.34375 29.824219 6.261719 29.664062 6.167969 29.503906 C 6.074219 29.34375 5.984375 29.183594 5.898438 29.023438 L 5.738281 29.109375 L 5.199219 29.394531 L 4.15625 29.949219 C 4.257812 30.152344 4.375 30.355469 4.484375 30.546875 C 4.601562 30.742188 4.710938 30.945312 4.839844 31.136719 L 5.210938 31.71875 L 5.605469 32.273438 C 5.65625 32.347656 5.707031 32.417969 5.765625 32.492188 L 7.785156 30.976562 L 8.0625 31.332031 C 8.15625 31.449219 8.238281 31.566406 8.347656 31.683594 L 8.644531 32.019531 L 8.785156 32.1875 L 8.9375 32.347656 L 8.019531 33.199219 C 7.925781 33.105469 7.835938 33.003906 7.75 32.90625 L 8.273438 32.441406 L 7.910156 32.019531 C 7.851562 31.953125 7.792969 31.878906 7.734375 31.808594 L 7.566406 31.589844 L 7.421875 31.699219 L 6.941406 32.070312 L 6.007812 32.804688 C 6.285156 33.164062 6.589844 33.511719 6.890625 33.855469 C 7.042969 34.023438 7.203125 34.183594 7.363281 34.351562 C 7.515625 34.519531 7.683594 34.671875 7.851562 34.832031 L 8.046875 35.015625 L 9.769531 33.164062 C 9.828125 33.214844 9.878906 33.265625 9.929688 33.316406 L 10.097656 33.460938 L 10.433594 33.753906 C 10.542969 33.855469 10.671875 33.9375 10.789062 34.03125 L 11.140625 34.308594 L 10.394531 35.3125 L 10.082031 35.066406 L 10.511719 34.519531 C 10.367188 34.402344 10.214844 34.292969 10.082031 34.175781 L 9.660156 33.8125 L 9.542969 33.949219 L 9.140625 34.402344 L 8.347656 35.285156 L 8.871094 35.730469 C 9.046875 35.875 9.230469 36.019531 9.410156 36.152344 C 9.585938 36.296875 9.769531 36.429688 9.957031 36.554688 L 10.234375 36.757812 C 10.285156 36.792969 10.324219 36.824219 10.375 36.859375 L 10.519531 36.953125 L 10.746094 37.09375 L 12.109375 34.964844 C 12.234375 35.042969 12.363281 35.125 12.488281 35.210938 L 12.875 35.4375 C 13.128906 35.589844 13.40625 35.722656 13.667969 35.859375 L 13.109375 36.976562 L 12.757812 36.800781 L 13.078125 36.1875 C 12.992188 36.144531 12.910156 36.101562 12.832031 36.058594 L 12.597656 35.925781 C 12.4375 35.832031 12.277344 35.742188 12.117188 35.648438 L 12.027344 35.800781 L 11.707031 36.320312 L 11.089844 37.332031 C 11.875 37.800781 12.683594 38.222656 13.523438 38.585938 C 13.609375 38.625 13.691406 38.652344 13.777344 38.6875 L 14.734375 36.347656 L 15.15625 36.515625 C 15.222656 36.539062 15.289062 36.574219 15.367188 36.597656 L 15.578125 36.675781 L 16.007812 36.816406 L 16.226562 36.886719 L 16.445312 36.945312 L 16.097656 38.148438 C 15.972656 38.113281 15.847656 38.078125 15.71875 38.039062 L 15.929688 37.371094 L 15.410156 37.195312 L 15.148438 37.105469 L 14.894531 37.003906 L 14.828125 37.171875 L 14.609375 37.734375 L 14.179688 38.835938 L 14.5 38.964844 L 15.15625 39.183594 C 15.265625 39.214844 15.375 39.257812 15.484375 39.285156 L 16.140625 39.46875 C 16.25 39.503906 16.359375 39.527344 16.46875 39.550781 L 16.804688 39.628906 L 17.066406 39.6875 L 17.589844 37.214844 C 17.730469 37.246094 17.882812 37.273438 18.027344 37.296875 L 18.472656 37.371094 C 18.765625 37.414062 19.070312 37.449219 19.363281 37.492188 L 19.238281 38.734375 L 18.84375 38.6875 L 18.925781 37.996094 C 18.742188 37.96875 18.5625 37.953125 18.378906 37.917969 L 17.832031 37.820312 L 17.796875 37.996094 L 17.6875 38.59375 L 17.46875 39.753906 L 18.144531 39.871094 L 18.824219 39.957031 C 18.933594 39.972656 19.050781 39.988281 19.160156 40 L 19.507812 40.023438 L 19.851562 40.050781 C 19.96875 40.058594 20.078125 40.066406 20.195312 40.066406 L 20.464844 40.074219 L 20.542969 37.550781 L 20.988281 37.558594 C 21.140625 37.558594 21.292969 37.550781 21.433594 37.550781 L 21.878906 37.542969 L 22.324219 37.507812 L 22.417969 38.753906 L 22.023438 38.785156 L 21.980469 38.097656 C 21.796875 38.105469 21.609375 38.105469 21.425781 38.113281 C 21.242188 38.113281 21.054688 38.128906 20.871094 38.121094 L 20.871094 38.308594 L 20.863281 38.914062 L 20.851562 40.097656 C 21.761719 40.097656 22.679688 40.058594 23.589844 39.929688 L 23.859375 39.898438 L 23.488281 37.398438 C 23.78125 37.355469 24.078125 37.296875 24.371094 37.246094 C 24.664062 37.179688 24.953125 37.113281 25.246094 37.042969 L 25.566406 38.257812 C 25.441406 38.289062 25.3125 38.316406 25.179688 38.347656 L 25.019531 37.675781 L 24.480469 37.800781 L 23.933594 37.902344 L 23.96875 38.078125 L 24.066406 38.675781 L 24.269531 39.847656 C 25.171875 39.703125 26.0625 39.46875 26.929688 39.191406 L 27.183594 39.105469 L 26.367188 36.714844 C 26.507812 36.664062 26.652344 36.625 26.785156 36.574219 L 27.207031 36.40625 C 27.484375 36.304688 27.753906 36.167969 28.03125 36.050781 L 28.5625 37.1875 L 28.199219 37.347656 L 27.921875 36.707031 C 27.839844 36.742188 27.753906 36.785156 27.667969 36.816406 L 26.894531 37.121094 L 26.953125 37.289062 L 27.164062 37.859375 L 27.570312 38.972656 C 28.425781 38.652344 29.261719 38.28125 30.066406 37.84375 C 30.152344 37.800781 30.226562 37.761719 30.304688 37.710938 L 29.09375 35.511719 C 29.351562 35.363281 29.613281 35.21875 29.867188 35.050781 L 30.246094 34.804688 C 30.371094 34.722656 30.488281 34.636719 30.617188 34.546875 L 31.339844 35.5625 L 31.019531 35.789062 L 30.632812 35.21875 L 30.167969 35.511719 L 29.933594 35.664062 L 29.699219 35.800781 L 29.789062 35.960938 L 30.09375 36.480469 L 30.691406 37.5 C 31.472656 37.035156 32.238281 36.523438 32.945312 35.949219 L 33.15625 35.78125 L 31.550781 33.828125 C 31.667969 33.738281 31.777344 33.636719 31.886719 33.535156 C 31.996094 33.433594 32.113281 33.34375 32.222656 33.242188 L 32.550781 32.929688 C 32.660156 32.828125 32.769531 32.726562 32.871094 32.609375 L 33.761719 33.484375 L 33.628906 33.628906 L 33.484375 33.761719 L 32.996094 33.265625 L 32.601562 33.644531 C 32.464844 33.769531 32.324219 33.890625 32.1875 34.007812 L 32.308594 34.140625 L 32.703125 34.605469 L 33.476562 35.503906 L 33.738281 35.277344 C 33.820312 35.203125 33.914062 35.125 33.988281 35.050781 L 34.488281 34.578125 C 34.644531 34.417969 34.804688 34.25 34.964844 34.082031 C 35.042969 34 35.125 33.914062 35.203125 33.828125 L 35.429688 33.570312 L 35.605469 33.367188 L 33.660156 31.761719 L 33.8125 31.589844 C 33.863281 31.53125 33.90625 31.472656 33.957031 31.414062 L 34.234375 31.0625 C 34.328125 30.945312 34.410156 30.816406 34.503906 30.699219 L 34.765625 30.335938 L 35.800781 31.035156 L 35.570312 31.355469 L 35.007812 30.953125 L 34.847656 31.179688 L 34.765625 31.289062 L 34.335938 31.835938 L 34.476562 31.953125 L 34.949219 32.339844 L 35.851562 33.074219 L 36.269531 32.535156 C 36.414062 32.355469 36.539062 32.164062 36.675781 31.980469 L 36.867188 31.699219 L 37.054688 31.414062 L 37.238281 31.128906 C 37.296875 31.035156 37.363281 30.933594 37.414062 30.835938 L 37.550781 30.597656 L 35.363281 29.328125 L 35.589844 28.941406 L 35.789062 28.546875 C 35.859375 28.410156 35.933594 28.285156 35.992188 28.140625 L 36.179688 27.730469 L 37.324219 28.234375 L 37.164062 28.59375 L 36.53125 28.300781 C 36.457031 28.46875 36.371094 28.628906 36.289062 28.796875 L 36.160156 29.042969 C 36.117188 29.125 36.078125 29.210938 36.035156 29.285156 L 36.195312 29.371094 L 36.726562 29.664062 L 37.761719 30.238281 C 37.820312 30.136719 37.871094 30.035156 37.917969 29.933594 L 38.078125 29.628906 L 38.238281 29.328125 L 38.382812 29.015625 C 38.476562 28.804688 38.578125 28.605469 38.660156 28.394531 L 38.914062 27.753906 C 38.945312 27.667969 38.980469 27.585938 39.003906 27.5 L 36.625 26.644531 C 36.816406 26.078125 37.003906 25.507812 37.136719 24.925781 L 38.347656 25.222656 C 38.316406 25.347656 38.289062 25.480469 38.257812 25.609375 L 37.582031 25.429688 C 37.480469 25.785156 37.390625 26.136719 37.261719 26.492188 L 37.441406 26.550781 L 38.011719 26.746094 L 39.132812 27.121094 L 39.242188 26.792969 C 39.273438 26.683594 39.308594 26.574219 39.34375 26.464844 L 39.527344 25.808594 C 39.628906 25.363281 39.746094 24.917969 39.8125 24.472656 L 39.863281 24.203125 L 37.371094 23.789062 C 37.390625 23.714844 37.398438 23.648438 37.414062 23.570312 L 37.441406 23.351562 L 37.5 22.90625 C 37.523438 22.753906 37.523438 22.613281 37.542969 22.460938 L 37.574219 22.015625 L 38.820312 22.082031 L 38.785156 22.476562 L 38.097656 22.425781 C 38.078125 22.796875 38.019531 23.160156 37.980469 23.519531 L 38.15625 23.546875 L 38.753906 23.628906 L 39.921875 23.796875 L 40.007812 23.117188 C 40.03125 22.890625 40.050781 22.664062 40.066406 22.433594 L 40.089844 22.089844 C 40.097656 21.972656 40.097656 21.863281 40.097656 21.746094 L 40.117188 21.0625 Z M 39.613281 23.328125 L 38.804688 23.226562 L 38.382812 23.175781 C 38.398438 23.050781 38.417969 22.914062 38.433594 22.789062 L 39.125 22.855469 L 39.164062 22.277344 L 39.191406 21.980469 L 39.199219 21.6875 L 37.214844 21.621094 C 37.214844 21.71875 37.214844 21.8125 37.203125 21.914062 L 37.179688 22.199219 C 37.164062 22.394531 37.152344 22.585938 37.128906 22.78125 L 37.054688 23.359375 L 37.035156 23.503906 L 37.011719 23.648438 L 36.960938 23.933594 L 36.945312 24.042969 L 39.425781 24.503906 L 39.375 24.773438 C 39.359375 24.867188 39.332031 24.953125 39.316406 25.035156 L 39.199219 25.566406 C 39.164062 25.742188 39.105469 25.910156 39.054688 26.085938 L 38.90625 26.609375 L 38.121094 26.367188 L 37.71875 26.238281 L 37.828125 25.859375 L 38.492188 26.054688 C 38.542969 25.867188 38.601562 25.683594 38.644531 25.492188 L 38.777344 24.917969 L 36.835938 24.496094 L 36.707031 25.0625 L 36.546875 25.617188 C 36.523438 25.710938 36.496094 25.800781 36.464844 25.894531 L 36.277344 26.449219 L 36.226562 26.585938 C 36.210938 26.625 36.195312 26.675781 36.179688 26.71875 L 36.136719 26.820312 L 38.5 27.730469 L 38.296875 28.234375 C 38.230469 28.402344 38.15625 28.5625 38.078125 28.730469 C 38.003906 28.890625 37.9375 29.058594 37.851562 29.21875 L 37.609375 29.699219 L 36.886719 29.320312 L 36.515625 29.125 L 36.691406 28.773438 L 37.3125 29.082031 C 37.40625 28.914062 37.480469 28.730469 37.566406 28.554688 C 37.640625 28.375 37.726562 28.199219 37.800781 28.023438 L 35.96875 27.257812 C 35.890625 27.433594 35.808594 27.609375 35.730469 27.789062 L 35.613281 28.046875 L 35.480469 28.308594 L 35.34375 28.570312 C 35.300781 28.65625 35.261719 28.746094 35.210938 28.824219 L 34.925781 29.328125 L 34.863281 29.421875 L 37.027344 30.734375 L 36.734375 31.1875 C 36.632812 31.339844 36.539062 31.492188 36.429688 31.640625 C 36.21875 31.9375 36.019531 32.230469 35.789062 32.515625 L 35.152344 32.011719 L 34.824219 31.75 C 34.90625 31.652344 34.984375 31.550781 35.066406 31.441406 L 35.621094 31.851562 L 35.960938 31.371094 C 36.019531 31.296875 36.078125 31.210938 36.128906 31.136719 L 36.289062 30.894531 L 34.621094 29.808594 L 34.460938 30.050781 L 34.292969 30.289062 C 34.175781 30.445312 34.074219 30.605469 33.957031 30.757812 L 33.59375 31.210938 C 33.535156 31.289062 33.46875 31.363281 33.410156 31.441406 L 33.214844 31.660156 L 33.140625 31.742188 L 35.035156 33.417969 C 34.972656 33.484375 34.914062 33.550781 34.855469 33.621094 L 34.671875 33.8125 L 34.300781 34.207031 C 34.175781 34.335938 34.039062 34.460938 33.914062 34.585938 L 33.71875 34.773438 L 33.621094 34.863281 L 33.519531 34.957031 L 32.972656 34.351562 L 32.695312 34.039062 C 32.792969 33.957031 32.886719 33.863281 32.980469 33.769531 L 33.453125 34.277344 L 33.871094 33.871094 L 34.277344 33.453125 L 32.828125 32.089844 C 32.308594 32.660156 31.726562 33.183594 31.121094 33.660156 L 31.035156 33.730469 L 32.601562 35.714844 C 32.457031 35.824219 32.324219 35.941406 32.171875 36.042969 L 31.734375 36.355469 L 31.515625 36.515625 L 31.289062 36.65625 L 30.835938 36.953125 L 30.40625 36.253906 L 30.1875 35.898438 L 30.515625 35.691406 L 30.894531 36.269531 C 31.222656 36.070312 31.53125 35.832031 31.851562 35.605469 L 30.664062 34.007812 C 30.042969 34.46875 29.386719 34.882812 28.703125 35.253906 L 28.605469 35.300781 L 29.789062 37.53125 C 29.472656 37.691406 29.152344 37.871094 28.824219 38.011719 L 28.328125 38.230469 L 27.820312 38.433594 L 27.527344 37.675781 L 27.375 37.289062 L 27.738281 37.144531 L 28.007812 37.785156 C 28.097656 37.75 28.183594 37.710938 28.277344 37.667969 L 28.546875 37.550781 C 28.722656 37.464844 28.898438 37.398438 29.074219 37.304688 L 28.191406 35.5625 L 28.066406 35.632812 L 27.929688 35.691406 L 27.667969 35.808594 C 27.492188 35.890625 27.316406 35.96875 27.140625 36.035156 L 26.601562 36.246094 L 26.054688 36.429688 L 25.945312 36.464844 L 26.710938 38.871094 C 26.542969 38.929688 26.367188 38.972656 26.1875 39.023438 C 26.011719 39.074219 25.84375 39.125 25.667969 39.164062 L 25.136719 39.292969 C 24.960938 39.332031 24.785156 39.375 24.605469 39.402344 L 24.457031 38.601562 L 24.378906 38.1875 L 24.574219 38.15625 L 24.765625 38.113281 L 24.910156 38.796875 L 25.480469 38.660156 C 25.574219 38.644531 25.667969 38.609375 25.769531 38.585938 L 26.046875 38.507812 L 25.5 36.597656 C 25.128906 36.714844 24.75 36.792969 24.371094 36.875 C 24.175781 36.917969 23.992188 36.945312 23.796875 36.976562 L 23.511719 37.027344 L 23.226562 37.0625 L 23.117188 37.078125 L 23.4375 39.585938 C 23.261719 39.613281 23.074219 39.636719 22.898438 39.652344 L 22.359375 39.695312 C 21.996094 39.730469 21.636719 39.730469 21.28125 39.738281 L 21.273438 38.921875 L 21.265625 38.5 L 21.660156 38.492188 L 21.6875 39.191406 L 21.980469 39.183594 L 22.277344 39.15625 L 22.855469 39.113281 L 22.664062 37.136719 C 22.277344 37.164062 21.886719 37.203125 21.5 37.203125 L 21.207031 37.214844 L 20.921875 37.214844 L 20.339844 37.195312 L 20.230469 37.195312 L 20.105469 39.722656 L 19.566406 39.679688 L 19.296875 39.660156 L 19.160156 39.652344 L 19.027344 39.636719 L 18.488281 39.570312 L 18.21875 39.535156 L 17.949219 39.484375 L 18.085938 38.675781 L 18.152344 38.265625 C 18.277344 38.289062 18.414062 38.316406 18.539062 38.324219 L 18.4375 39.015625 C 18.824219 39.0625 19.210938 39.125 19.597656 39.140625 L 19.757812 37.152344 L 19.472656 37.128906 C 19.371094 37.121094 19.28125 37.105469 19.1875 37.09375 L 18.605469 37.019531 L 18.035156 36.917969 C 17.941406 36.902344 17.839844 36.886719 17.75 36.867188 L 17.460938 36.800781 L 17.351562 36.777344 L 16.773438 39.242188 C 16.066406 39.082031 15.375 38.863281 14.691406 38.625 L 14.972656 37.859375 L 15.113281 37.464844 L 15.484375 37.589844 L 15.265625 38.25 C 15.636719 38.382812 16.007812 38.476562 16.386719 38.585938 L 16.898438 36.664062 L 16.34375 36.507812 C 16.25 36.480469 16.15625 36.445312 16.066406 36.414062 L 15.789062 36.320312 L 15.507812 36.226562 L 15.242188 36.117188 C 15.0625 36.042969 14.878906 35.984375 14.703125 35.898438 L 14.601562 35.859375 L 13.589844 38.171875 C 13.261719 38.019531 12.925781 37.878906 12.613281 37.710938 L 12.136719 37.464844 L 11.664062 37.195312 L 12.074219 36.488281 L 12.285156 36.128906 L 12.632812 36.320312 L 12.296875 36.925781 C 12.378906 36.976562 12.464844 37.019531 12.554688 37.0625 L 12.816406 37.195312 L 13.078125 37.332031 L 13.203125 37.398438 L 13.339844 37.457031 L 14.1875 35.65625 L 14.054688 35.597656 L 13.925781 35.53125 L 13.667969 35.394531 L 13.40625 35.261719 C 13.320312 35.21875 13.238281 35.167969 13.152344 35.117188 C 12.984375 35.015625 12.816406 34.925781 12.648438 34.824219 L 12.160156 34.511719 L 12.066406 34.453125 L 10.664062 36.546875 C 10.511719 36.445312 10.367188 36.335938 10.214844 36.238281 L 9.996094 36.078125 L 9.886719 36 L 9.777344 35.917969 L 9.347656 35.582031 C 9.28125 35.523438 9.207031 35.472656 9.140625 35.410156 L 8.9375 35.234375 L 9.46875 34.613281 L 9.738281 34.292969 C 9.835938 34.378906 9.929688 34.46875 10.039062 34.546875 L 9.601562 35.082031 C 9.90625 35.320312 10.207031 35.570312 10.527344 35.789062 L 11.679688 34.175781 C 11.519531 34.066406 11.359375 33.957031 11.210938 33.828125 L 10.753906 33.46875 C 10.460938 33.214844 10.164062 32.964844 9.886719 32.695312 L 9.804688 32.617188 L 8.046875 34.4375 L 7.851562 34.25 C 7.785156 34.183594 7.726562 34.125 7.667969 34.058594 L 7.296875 33.660156 C 7.171875 33.535156 7.058594 33.390625 6.933594 33.257812 C 6.816406 33.125 6.699219 32.988281 6.582031 32.84375 L 7.210938 32.332031 L 7.539062 32.0625 C 7.625 32.164062 7.707031 32.265625 7.792969 32.367188 L 7.261719 32.820312 C 7.390625 32.964844 7.515625 33.113281 7.648438 33.257812 L 8.054688 33.679688 L 9.476562 32.289062 L 9.070312 31.871094 L 8.691406 31.429688 C 8.558594 31.289062 8.449219 31.128906 8.332031 30.976562 C 8.214844 30.824219 8.085938 30.675781 7.976562 30.515625 L 7.910156 30.421875 L 5.855469 31.894531 L 5.546875 31.457031 L 5.25 31.003906 C 5.050781 30.699219 4.882812 30.386719 4.695312 30.066406 L 5.410156 29.671875 L 5.78125 29.472656 L 5.976562 29.816406 L 5.378906 30.167969 L 5.519531 30.421875 L 5.679688 30.664062 L 5.992188 31.152344 L 7.640625 30.042969 C 7.210938 29.394531 6.824219 28.722656 6.480469 28.03125 L 6.4375 27.929688 L 4.148438 29.015625 L 3.921875 28.519531 C 3.886719 28.4375 3.847656 28.351562 3.8125 28.277344 L 3.710938 28.023438 L 3.507812 27.519531 C 3.441406 27.351562 3.390625 27.171875 3.332031 27.003906 L 4.105469 26.746094 L 4.503906 26.609375 L 4.628906 26.980469 L 3.972656 27.214844 C 4.039062 27.402344 4.113281 27.578125 4.183594 27.761719 L 4.292969 28.03125 C 4.324219 28.125 4.367188 28.207031 4.410156 28.300781 L 6.226562 27.5 C 5.925781 26.785156 5.648438 26.0625 5.453125 25.3125 L 5.417969 25.203125 L 2.980469 25.859375 C 2.929688 25.683594 2.886719 25.507812 2.84375 25.339844 L 2.726562 24.808594 C 2.691406 24.632812 2.660156 24.457031 2.625 24.277344 L 2.574219 24.007812 C 2.558594 23.917969 2.542969 23.832031 2.53125 23.738281 L 3.339844 23.621094 L 3.753906 23.5625 C 3.769531 23.699219 3.796875 23.824219 3.820312 23.949219 L 3.140625 24.066406 L 3.238281 24.640625 C 3.28125 24.832031 3.324219 25.019531 3.367188 25.210938 L 5.300781 24.757812 C 5.117188 24.007812 5.007812 23.234375 4.929688 22.46875 L 4.921875 22.359375 L 2.40625 22.570312 L 2.363281 22.03125 C 2.355469 21.855469 2.355469 21.667969 2.347656 21.492188 C 2.347656 21.316406 2.339844 21.132812 2.339844 20.953125 L 2.355469 20.414062 L 3.171875 20.441406 L 3.59375 20.457031 L 3.585938 20.851562 L 2.886719 20.84375 C 2.878906 21.039062 2.886719 21.230469 2.894531 21.425781 C 2.902344 21.621094 2.902344 21.8125 2.910156 22.007812 L 4.898438 21.898438 C 4.890625 21.703125 4.890625 21.511719 4.882812 21.316406 L 4.871094 21.023438 L 4.882812 20.726562 C 4.890625 20.535156 4.890625 20.339844 4.898438 20.148438 L 4.941406 19.566406 L 4.949219 19.457031 L 2.433594 19.210938 C 2.441406 19.121094 2.449219 19.035156 2.457031 18.941406 L 2.492188 18.671875 C 2.515625 18.496094 2.53125 18.3125 2.558594 18.136719 L 2.652344 17.605469 C 2.683594 17.429688 2.710938 17.25 2.75 17.074219 L 3.550781 17.242188 L 3.964844 17.328125 C 3.945312 17.394531 3.929688 17.453125 3.921875 17.519531 L 3.886719 17.714844 L 3.207031 17.589844 L 3.105469 18.160156 C 3.070312 18.355469 3.054688 18.546875 3.03125 18.742188 L 5 18.984375 L 5.03125 18.699219 L 5.050781 18.554688 L 5.074219 18.414062 L 5.175781 17.839844 C 5.210938 17.648438 5.257812 17.460938 5.300781 17.277344 L 5.367188 16.992188 C 5.394531 16.898438 5.417969 16.804688 5.445312 16.714844 L 5.476562 16.605469 L 3.03125 15.9375 C 3.078125 15.761719 3.121094 15.59375 3.179688 15.417969 L 3.359375 14.902344 L 3.441406 14.652344 C 3.46875 14.566406 3.507812 14.484375 3.542969 14.398438 L 3.746094 13.894531 L 4.503906 14.207031 L 4.890625 14.363281 L 4.746094 14.726562 L 4.097656 14.472656 L 3.988281 14.742188 C 3.957031 14.835938 3.921875 14.929688 3.894531 15.023438 L 3.710938 15.578125 L 5.605469 16.175781 C 5.839844 15.433594 6.125 14.71875 6.464844 14.011719 L 6.511719 13.910156 L 4.242188 12.800781 L 4.484375 12.320312 C 4.527344 12.246094 4.570312 12.160156 4.613281 12.074219 L 4.746094 11.839844 L 5.015625 11.371094 C 5.109375 11.21875 5.210938 11.066406 5.300781 10.914062 L 5.984375 11.351562 L 6.335938 11.578125 L 6.125 11.90625 L 5.539062 11.546875 C 5.4375 11.714844 5.34375 11.882812 5.242188 12.050781 C 5.140625 12.21875 5.050781 12.386719 4.964844 12.5625 L 6.722656 13.488281 C 6.808594 13.3125 6.910156 13.152344 7 12.984375 C 7.101562 12.816406 7.1875 12.648438 7.296875 12.488281 L 7.609375 12 L 7.945312 11.527344 L 8.011719 11.4375 L 5.976562 9.929688 C 6.027344 9.855469 6.085938 9.789062 6.136719 9.710938 L 6.304688 9.5 C 6.414062 9.359375 6.523438 9.214844 6.640625 9.082031 L 6.992188 8.667969 L 7.171875 8.464844 L 7.355469 8.273438 L 7.953125 8.828125 L 8.253906 9.113281 C 8.164062 9.207031 8.070312 9.300781 7.984375 9.398438 L 7.464844 8.9375 L 7.085938 9.375 C 7.019531 9.449219 6.960938 9.527344 6.902344 9.601562 L 6.722656 9.828125 L 8.289062 11.058594 C 8.523438 10.746094 8.785156 10.460938 9.039062 10.164062 L 9.441406 9.746094 C 9.578125 9.601562 9.710938 9.46875 9.855469 9.332031 L 9.9375 9.257812 L 8.195312 7.421875 C 8.449219 7.171875 8.734375 6.941406 9.003906 6.699219 C 9.140625 6.582031 9.28125 6.472656 9.425781 6.363281 L 9.855469 6.027344 L 10.34375 6.683594 L 10.59375 7.019531 L 10.285156 7.261719 L 9.855469 6.714844 C 9.703125 6.832031 9.542969 6.949219 9.398438 7.078125 L 8.960938 7.457031 L 10.285156 8.9375 L 10.722656 8.558594 L 11.175781 8.195312 C 11.328125 8.070312 11.488281 7.960938 11.648438 7.851562 L 11.882812 7.683594 C 11.925781 7.65625 11.957031 7.625 12 7.597656 L 12.125 7.523438 L 12.21875 7.464844 L 10.839844 5.34375 L 11.292969 5.050781 C 11.445312 4.957031 11.605469 4.863281 11.765625 4.78125 L 12 4.644531 L 12.117188 4.578125 L 12.234375 4.519531 L 12.714844 4.273438 L 13.078125 5.007812 L 13.261719 5.386719 L 12.910156 5.5625 L 12.589844 4.949219 C 12.503906 4.992188 12.414062 5.03125 12.328125 5.082031 L 12.074219 5.226562 C 11.90625 5.328125 11.738281 5.417969 11.570312 5.519531 L 12.605469 7.21875 C 13.269531 6.824219 13.960938 6.464844 14.667969 6.152344 C 14.703125 6.136719 14.734375 6.117188 14.769531 6.109375 L 13.800781 3.769531 C 14.472656 3.5 15.148438 3.25 15.847656 3.054688 L 16.074219 3.835938 L 16.191406 4.242188 C 16.066406 4.273438 15.9375 4.308594 15.8125 4.351562 L 15.601562 3.6875 L 15.046875 3.871094 C 14.953125 3.90625 14.863281 3.929688 14.769531 3.964844 L 14.5 4.074219 L 15.214844 5.925781 L 15.484375 5.816406 L 16.039062 5.628906 C 16.132812 5.597656 16.226562 5.5625 16.316406 5.539062 L 16.871094 5.378906 C 16.964844 5.351562 17.058594 5.328125 17.152344 5.308594 L 17.4375 5.242188 L 17.546875 5.21875 L 17 2.761719 L 17.261719 2.703125 L 17.53125 2.652344 L 18.058594 2.558594 L 18.195312 2.53125 L 18.328125 2.515625 L 18.597656 2.484375 L 19.136719 2.414062 L 19.222656 3.222656 L 19.261719 3.644531 L 18.875 3.695312 L 18.792969 3.003906 C 18.597656 3.03125 18.40625 3.046875 18.210938 3.078125 L 17.640625 3.179688 L 18.007812 5.132812 L 18.582031 5.03125 L 19.160156 4.957031 C 19.253906 4.949219 19.355469 4.929688 19.449219 4.921875 L 19.734375 4.898438 L 20.019531 4.871094 C 20.113281 4.863281 20.214844 4.855469 20.316406 4.855469 L 20.425781 4.855469 L 20.332031 2.332031 C 20.695312 2.324219 21.054688 2.304688 21.417969 2.324219 L 21.957031 2.339844 C 22.132812 2.347656 22.316406 2.363281 22.496094 2.382812 L 22.433594 3.199219 L 22.402344 3.617188 L 22.007812 3.585938 L 22.039062 2.894531 C 21.847656 2.886719 21.652344 2.886719 21.460938 2.878906 C 21.265625 2.878906 21.070312 2.859375 20.878906 2.871094 L 20.894531 4.855469 C 21.667969 4.855469 22.453125 4.890625 23.21875 5 L 23.328125 5.015625 L 23.679688 2.507812 C 23.859375 2.523438 24.035156 2.558594 24.21875 2.59375 L 24.75 2.683594 C 24.925781 2.71875 25.101562 2.761719 25.28125 2.800781 C 25.457031 2.84375 25.632812 2.878906 25.808594 2.929688 L 25.601562 3.71875 L 25.492188 4.125 C 25.363281 4.089844 25.238281 4.066406 25.113281 4.03125 L 25.273438 3.359375 L 24.699219 3.222656 L 24.128906 3.121094 L 23.789062 5.082031 C 24.554688 5.199219 25.304688 5.402344 26.046875 5.636719 L 26.15625 5.671875 L 26.953125 3.273438 L 27.46875 3.449219 L 27.972656 3.644531 C 28.308594 3.769531 28.636719 3.921875 28.964844 4.074219 L 28.621094 4.8125 L 28.445312 5.191406 L 28.082031 5.03125 L 28.359375 4.394531 C 28.265625 4.351562 28.183594 4.308594 28.089844 4.273438 L 27.820312 4.164062 L 27.273438 3.957031 L 26.59375 5.824219 C 27.316406 6.101562 28.023438 6.414062 28.714844 6.773438 C 28.746094 6.792969 28.78125 6.808594 28.8125 6.824219 L 30.027344 4.613281 C 30.65625 4.964844 31.273438 5.335938 31.859375 5.765625 L 31.390625 6.429688 L 31.144531 6.773438 L 30.824219 6.546875 L 31.210938 5.976562 L 30.726562 5.664062 L 30.480469 5.503906 L 30.226562 5.359375 L 29.21875 7.078125 C 29.882812 7.472656 30.53125 7.902344 31.136719 8.390625 L 31.222656 8.457031 L 32.8125 6.496094 C 32.953125 6.605469 33.089844 6.722656 33.222656 6.839844 L 33.636719 7.195312 L 34.03125 7.566406 C 34.160156 7.691406 34.292969 7.808594 34.417969 7.945312 L 33.839844 8.515625 L 33.535156 8.8125 L 33.402344 8.667969 L 33.257812 8.535156 L 33.746094 8.035156 L 33.324219 7.632812 C 33.183594 7.5 33.03125 7.378906 32.886719 7.246094 L 31.574219 8.753906 L 31.792969 8.945312 C 31.871094 9.003906 31.9375 9.070312 32.011719 9.140625 L 32.433594 9.542969 C 32.566406 9.679688 32.703125 9.820312 32.835938 9.964844 C 32.90625 10.03125 32.972656 10.105469 33.039062 10.175781 L 33.234375 10.394531 L 33.308594 10.476562 L 35.226562 8.828125 C 35.707031 9.367188 36.136719 9.957031 36.546875 10.542969 L 35.875 11 L 35.53125 11.234375 L 35.300781 10.914062 L 35.867188 10.511719 L 35.699219 10.273438 L 35.613281 10.15625 L 35.523438 10.039062 L 35.160156 9.578125 L 33.621094 10.832031 L 33.980469 11.285156 C 34.097656 11.4375 34.207031 11.597656 34.316406 11.757812 L 34.488281 11.992188 L 34.644531 12.234375 L 34.804688 12.480469 C 34.855469 12.5625 34.914062 12.640625 34.957031 12.722656 L 35.015625 12.824219 L 37.195312 11.539062 L 37.464844 12.007812 C 37.515625 12.085938 37.550781 12.167969 37.589844 12.246094 L 37.71875 12.488281 C 37.800781 12.648438 37.886719 12.808594 37.960938 12.96875 L 38.1875 13.464844 L 37.441406 13.792969 L 37.054688 13.960938 L 36.894531 13.597656 L 37.523438 13.304688 C 37.449219 13.128906 37.355469 12.953125 37.261719 12.78125 L 37.113281 12.539062 C 37.070312 12.453125 37.027344 12.363281 36.976562 12.277344 L 35.234375 13.238281 C 35.285156 13.320312 35.328125 13.40625 35.371094 13.488281 L 35.503906 13.75 L 35.640625 14.011719 L 35.757812 14.273438 C 35.832031 14.449219 35.917969 14.625 35.992188 14.804688 L 36.203125 15.339844 L 36.246094 15.441406 L 38.617188 14.566406 L 38.796875 15.082031 L 38.878906 15.332031 L 38.921875 15.460938 L 38.953125 15.585938 L 39.105469 16.105469 C 39.132812 16.191406 39.15625 16.285156 39.183594 16.367188 L 39.242188 16.628906 L 38.449219 16.824219 L 38.046875 16.921875 C 38.011719 16.796875 37.988281 16.671875 37.953125 16.542969 L 38.625 16.367188 C 38.515625 15.996094 38.425781 15.617188 38.289062 15.25 L 36.40625 15.878906 L 36.496094 16.15625 C 36.53125 16.25 36.546875 16.34375 36.582031 16.433594 L 36.742188 16.992188 C 36.824219 17.371094 36.925781 17.738281 36.984375 18.125 L 37.003906 18.234375 L 39.492188 17.808594 C 39.621094 18.515625 39.695312 19.238281 39.746094 19.953125 L 38.929688 19.996094 L 38.507812 20.019531 L 38.476562 19.625 L 39.164062 19.574219 C 39.140625 19.1875 39.089844 18.800781 39.039062 18.414062 L 37.070312 18.699219 L 37.144531 19.28125 C 37.171875 19.472656 37.179688 19.667969 37.195312 19.859375 L 37.222656 20.148438 C 37.230469 20.238281 37.230469 20.339844 37.230469 20.441406 L 37.246094 21.023438 L 37.246094 21.132812 L 39.769531 21.148438 C 39.746094 21.886719 39.703125 22.613281 39.613281 23.328125 Z M 39.613281 23.328125 " fill-opacity="1" fill-rule="nonzero"/><path fill="#464646" d="M 21.039062 5.621094 C 12.539062 5.621094 5.621094 12.539062 5.621094 21.039062 C 5.621094 29.539062 12.539062 36.457031 21.039062 36.457031 C 29.539062 36.457031 36.457031 29.539062 36.457031 21.039062 C 36.457031 12.539062 29.539062 5.621094 21.039062 5.621094 Z M 21.039062 35.234375 C 13.210938 35.234375 6.832031 28.863281 6.832031 21.039062 C 6.832031 13.210938 13.210938 6.839844 21.039062 6.839844 C 28.863281 6.839844 35.242188 13.210938 35.242188 21.039062 C 35.242188 28.863281 28.863281 35.234375 21.039062 35.234375 Z M 21.039062 35.234375 " fill-opacity="1" fill-rule="nonzero"/><g clip-path="url(#fdd2bebf58)"><path fill="#464646" d="M 35.917969 6.160156 C 31.945312 2.1875 26.660156 0 21.039062 0 C 15.417969 0 10.132812 2.1875 6.160156 6.160156 C 2.1875 10.132812 0 15.417969 0 21.039062 C 0 26.660156 2.1875 31.945312 6.160156 35.917969 C 10.132812 39.890625 15.417969 42.078125 21.039062 42.078125 C 26.660156 42.078125 31.945312 39.890625 35.917969 35.917969 C 39.890625 31.945312 42.078125 26.660156 42.078125 21.039062 C 42.078125 15.417969 39.890625 10.132812 35.917969 6.160156 Z M 21.039062 40.867188 C 10.105469 40.867188 1.210938 31.96875 1.210938 21.039062 C 1.210938 10.105469 10.105469 1.210938 21.039062 1.210938 C 31.96875 1.210938 40.867188 10.105469 40.867188 21.039062 C 40.867188 31.96875 31.96875 40.867188 21.039062 40.867188 Z M 21.039062 40.867188 " fill-opacity="1" fill-rule="nonzero"/></g><g clip-path="url(#58aac91c75)"><path fill="#464646" d="M 19.632812 26.261719 C 21.09375 25.519531 22.199219 24.472656 22.492188 22.765625 C 22.65625 21.800781 22.308594 20.230469 21.753906 19.664062 C 21.714844 22.746094 20.152344 24.589844 17.304688 25.4375 L 17.304688 23.597656 C 19.730469 23.425781 20.761719 22.726562 20.777344 21.386719 C 20.253906 21.582031 19.699219 21.832031 19.117188 21.988281 C 18.609375 22.128906 18.070312 22.148438 17.550781 22.246094 C 16.554688 22.433594 15.667969 22.863281 15.230469 23.816406 C 14.929688 24.480469 14.5 24.703125 13.832031 24.617188 L 13.03125 24.515625 C 13.003906 24.65625 12.980469 24.78125 12.921875 25.078125 C 12.605469 24.6875 12.285156 24.453125 12.199219 24.152344 C 12.078125 23.734375 12.09375 23.265625 12.160156 22.832031 C 12.167969 22.769531 12.773438 22.777344 13.105469 22.785156 C 13.320312 22.792969 13.535156 22.890625 13.753906 22.894531 C 13.992188 22.902344 14.230469 22.855469 14.46875 22.828125 L 14.464844 22.636719 C 13.59375 22.542969 12.722656 22.445312 11.851562 22.34375 C 11.75 22.332031 11.628906 22.320312 11.5625 22.261719 C 10.894531 21.664062 10.972656 20.359375 11.683594 19.828125 C 11.777344 19.757812 11.808594 19.609375 11.871094 19.5 L 11.765625 19.363281 C 11.441406 19.460938 11.121094 19.589844 10.789062 19.652344 C 10.597656 19.6875 10.25 19.675781 10.214844 19.585938 C 10.140625 19.402344 10.148438 19.097656 10.261719 18.941406 C 11.046875 17.839844 11.910156 16.808594 13.179688 16.210938 C 13.351562 16.128906 13.574219 16.007812 13.632812 15.851562 C 13.886719 15.132812 14.519531 14.925781 15.113281 14.640625 C 15.402344 14.5 15.667969 14.308594 15.941406 14.140625 L 15.828125 13.957031 C 15.070312 14.386719 14.140625 14.472656 13.5625 15.277344 C 13.320312 15.613281 13.023438 15.886719 12.667969 16.101562 C 11.570312 16.757812 10.582031 17.535156 9.980469 18.675781 C 9.808594 18.996094 9.765625 19.527344 9.914062 19.847656 C 10.445312 20.992188 11.085938 22.089844 11.671875 23.207031 C 11.726562 23.316406 11.71875 23.460938 11.726562 23.589844 C 11.796875 24.679688 12.402344 25.375 13.492188 25.617188 C 13.519531 24.859375 13.652344 24.714844 14.417969 24.949219 C 15.039062 25.140625 15.226562 24.914062 15.386719 24.375 C 15.457031 24.144531 15.757812 23.980469 15.953125 23.785156 C 16.109375 24.023438 16.441406 24.300781 16.394531 24.488281 C 16.226562 25.199219 16 25.914062 15.675781 26.570312 C 15.351562 27.21875 14.839844 27.765625 14.496094 28.40625 C 13.941406 29.429688 14.160156 30.6875 14.890625 31.398438 C 14.890625 31.019531 14.84375 30.574219 14.898438 30.148438 C 15.074219 28.761719 16.054688 28.015625 17.183594 27.429688 C 17.984375 27.011719 18.824219 26.671875 19.632812 26.261719 Z M 19.632812 26.261719 " fill-opacity="1" fill-rule="nonzero"/></g><path fill="#464646" d="M 23.320312 16.152344 C 23.554688 16.28125 23.683594 16.332031 23.785156 16.414062 C 26.613281 18.605469 27.878906 21.507812 27.546875 25.046875 C 27.324219 27.449219 26.371094 29.46875 23.878906 30.59375 C 26.980469 30.5 29.535156 26.371094 29.175781 22.277344 C 28.914062 19.320312 25.679688 15.78125 23.320312 16.152344 Z M 23.320312 16.152344 " fill-opacity="1" fill-rule="nonzero"/><g clip-path="url(#4c79a1ff89)"><path fill="#464646" d="M 25.703125 21.144531 C 25.308594 19.628906 24.515625 18.34375 23.21875 17.402344 C 23.25 17.589844 23.324219 17.761719 23.4375 17.917969 C 24.269531 19.082031 24.699219 20.402344 24.773438 21.8125 C 24.949219 25.316406 23.046875 27.980469 19.707031 29.082031 C 18.835938 29.371094 17.960938 29.734375 17.199219 30.230469 C 16.234375 30.859375 16.015625 31.933594 16.511719 32.90625 C 16.824219 31.234375 18.046875 30.648438 19.449219 30.273438 C 19.726562 30.199219 20.007812 30.148438 20.289062 30.078125 C 24.332031 29.09375 26.742188 25.140625 25.703125 21.144531 Z M 25.703125 21.144531 " fill-opacity="1" fill-rule="nonzero"/></g><g clip-path="url(#952fdc98ef)"><path fill="#464646" d="M 31.511719 18.089844 C 30.027344 14.957031 27.445312 13.464844 24.0625 13.269531 C 30.171875 15.726562 32.34375 20.117188 30.578125 26.433594 C 32.378906 24.328125 32.800781 20.816406 31.511719 18.089844 Z M 31.511719 18.089844 " fill-opacity="1" fill-rule="nonzero"/></g><g clip-path="url(#3cbdb83473)"><path fill="#464646" d="M 18.210938 10.992188 C 20.019531 10.1875 21.902344 9.96875 23.835938 10.300781 C 24.769531 10.460938 25.679688 10.746094 26.609375 10.921875 C 27.703125 11.125 28.707031 10.710938 29.074219 10.019531 C 28.351562 10.019531 27.582031 10.089844 26.832031 9.996094 C 26.070312 9.90625 25.332031 9.640625 24.582031 9.46875 C 21.726562 8.816406 19.0625 9.265625 16.621094 10.898438 C 15.695312 11.519531 15.457031 12.496094 16.023438 13.441406 C 16.304688 12.167969 17.136719 11.46875 18.210938 10.992188 Z M 18.210938 10.992188 " fill-opacity="1" fill-rule="nonzero"/></g><path fill="#464646" d="M 23.359375 13.761719 C 23.195312 12.542969 22.070312 11.601562 20.859375 11.667969 C 19.664062 11.730469 18.769531 12.542969 18.757812 13.625 C 19.15625 13.359375 19.519531 13.082031 19.910156 12.859375 C 20.824219 12.347656 21.753906 12.464844 22.320312 13.125 C 22.9375 13.84375 22.921875 14.851562 22.273438 15.675781 C 22.078125 15.921875 21.847656 16.140625 21.597656 16.402344 C 22.8125 16.164062 23.535156 15.050781 23.359375 13.761719 Z M 23.359375 13.761719 " fill-opacity="1" fill-rule="nonzero"/><path fill="#464646" d="M 26.28125 11.597656 C 28.859375 12.648438 30.714844 14.328125 31.765625 16.851562 C 31.777344 14.398438 28.632812 11.347656 26.28125 11.597656 Z M 26.28125 11.597656 " fill-opacity="1" fill-rule="nonzero"/><path fill="#464646" d="M 21.1875 13.921875 C 20.84375 13.839844 20.449219 13.914062 20.09375 13.984375 C 19.964844 14.011719 19.875 14.238281 19.765625 14.371094 C 19.925781 14.46875 20.105469 14.671875 20.238281 14.644531 C 20.917969 14.496094 21.078125 14.910156 21.171875 15.511719 C 21.890625 14.871094 21.875 14.089844 21.1875 13.921875 Z M 21.1875 13.921875 " fill-opacity="1" fill-rule="nonzero"/><g clip-path="url(#7f7e4bfa26)"><g clip-path="url(#c2801e5734)"><g transform="matrix(1, 0, 0, 1, 16, 15)"><g clip-path="url(#538853b882)"><g clip-path="url(#4dc07b900d)"><g clip-path="url(#2365917520)"><path fill="#ffffff" d="M -0.464844 1.917969 L -0.464844 0.0820312 L 1.910156 0.0820312 L 1.910156 1.917969 Z M -0.464844 1.917969 " fill-opacity="1" fill-rule="nonzero"/></g></g></g></g></g></g></g></g></g></svg>